<svg id="visual" viewBox="0 0 900 600" width="900" height="600" xmlns="http://www.w3.org/2000/svg" xmlns:xlink="http://www.w3.org/1999/xlink" version="1.1"><path d="M0 97L21.5 110C43 123 86 149 128.8 174C171.7 199 214.3 223 257.2 222C300 221 343 195 385.8 182C428.7 169 471.3 169 514.2 159C557 149 600 129 642.8 134C685.7 139 728.3 169 771.2 169C814 169 857 139 878.5 124L900 109L900 0L878.5 0C857 0 814 0 771.2 0C728.3 0 685.7 0 642.8 0C600 0 557 0 514.2 0C471.3 0 428.7 0 385.8 0C343 0 300 0 257.2 0C214.3 0 171.7 0 128.8 0C86 0 43 0 21.5 0L0 0Z" fill="#f05247"></path><path d="M0 181L21.5 194C43 207 86 233 128.8 252C171.7 271 214.3 283 257.2 274C300 265 343 235 385.8 225C428.7 215 471.3 225 514.2 223C557 221 600 207 642.8 209C685.7 211 728.3 229 771.2 226C814 223 857 199 878.5 187L900 175L900 107L878.5 122C857 137 814 167 771.2 167C728.3 167 685.7 137 642.8 132C600 127 557 147 514.2 157C471.3 167 428.7 167 385.8 180C343 193 300 219 257.2 220C214.3 221 171.7 197 128.8 172C86 147 43 121 21.5 108L0 95Z" fill="#e84569"></path><path d="M0 343L21.5 343C43 343 86 343 128.8 353C171.7 363 214.3 383 257.2 384C300 385 343 367 385.8 367C428.7 367 471.3 385 514.2 396C557 407 600 411 642.8 401C685.7 391 728.3 367 771.2 364C814 361 857 379 878.5 388L900 397L900 173L878.5 185C857 197 814 221 771.2 224C728.3 227 685.7 209 642.8 207C600 205 557 219 514.2 221C471.3 223 428.7 213 385.8 223C343 233 300 263 257.2 272C214.3 281 171.7 269 128.8 250C86 231 43 205 21.5 192L0 179Z" fill="#d54686"></path><path d="M0 439L21.5 436C43 433 86 427 128.8 434C171.7 441 214.3 461 257.2 464C300 467 343 453 385.8 450C428.7 447 471.3 455 514.2 459C557 463 600 463 642.8 455C685.7 447 728.3 431 771.2 427C814 423 857 431 878.5 435L900 439L900 395L878.5 386C857 377 814 359 771.2 362C728.3 365 685.7 389 642.8 399C600 409 557 405 514.2 394C471.3 383 428.7 365 385.8 365C343 365 300 383 257.2 382C214.3 381 171.7 361 128.8 351C86 341 43 341 21.5 341L0 341Z" fill="#b74f9c"></path><path d="M0 553L21.5 552C43 551 86 549 128.8 550C171.7 551 214.3 555 257.2 552C300 549 343 539 385.8 536C428.7 533 471.3 537 514.2 539C557 541 600 541 642.8 539C685.7 537 728.3 533 771.2 531C814 529 857 529 878.5 529L900 529L900 437L878.5 433C857 429 814 421 771.2 425C728.3 429 685.7 445 642.8 453C600 461 557 461 514.2 457C471.3 453 428.7 445 385.8 448C343 451 300 465 257.2 462C214.3 459 171.7 439 128.8 432C86 425 43 431 21.5 434L0 437Z" fill="#9259a9"></path><path d="M0 601L21.5 601C43 601 86 601 128.8 601C171.7 601 214.3 601 257.2 601C300 601 343 601 385.8 601C428.7 601 471.3 601 514.2 601C557 601 600 601 642.8 601C685.7 601 728.3 601 771.2 601C814 601 857 601 878.5 601L900 601L900 527L878.5 527C857 527 814 527 771.2 529C728.3 531 685.7 535 642.8 537C600 539 557 539 514.2 537C471.3 535 428.7 531 385.8 534C343 537 300 547 257.2 550C214.3 553 171.7 549 128.8 548C86 547 43 549 21.5 550L0 551Z" fill="#6860ab"></path></svg>